<?xml version="1.0" encoding="UTF-8"?>
<svg width="449px" height="180px" viewBox="0 0 449 180" version="1.1" xmlns="http://www.w3.org/2000/svg" xmlns:xlink="http://www.w3.org/1999/xlink">
    <!-- Generator: Sketch 50 (54983) - http://www.bohemiancoding.com/sketch -->
    <title>image browser bar</title>
    <desc>Created with Sketch.</desc>
    <defs></defs>
    <g id="Tutorial-1" stroke="none" stroke-width="1" fill="none" fill-rule="evenodd">
        <g id="Custom-setup-5" transform="translate(-492.000000, -108.000000)">
            <g id="image-browser-bar" transform="translate(492.000000, 108.000000)">
                <g id="Group-2" transform="translate(375.000000, 61.000000)">
                    <g id="Group-13" transform="translate(28.500000, 63.000000) scale(-1, 1) rotate(90.000000) translate(-28.500000, -63.000000) translate(-30.000000, 35.000000)"></g>
                    <g id="Group-13" transform="translate(46.000000, 60.500000) scale(-1, 1) rotate(90.000000) translate(-46.000000, -60.500000) translate(-12.500000, 32.500000)" fill="#00AEF0">
                        <g id="Page-1">
                            <path d="M12.5424797,24.6725352 L75,24.6725352 L75,31.2288732 L12.4027077,31.2288732 C19.2227582,38.064554 25.9153694,44.7728873 32.5504275,51.4278169 C30.9348279,53.0381455 29.4178908,54.5416667 27.950285,56 C18.6595593,46.6789906 9.28250384,37.2758216 0,27.9630282 C9.22906161,18.7077465 18.610228,9.30868545 27.8927319,0 C29.3027845,1.40903756 30.8032778,2.92077465 32.2379961,4.35856808 C25.7221552,10.8902582 19.0213221,17.6068075 12.3245999,24.3192488 C12.3985968,24.4383803 12.4684828,24.5575117 12.5424797,24.6725352 Z" id="Fill-1"></path>
                            <polygon id="Fill-3" points="80 31 85 31 85 25 80 25"></polygon>
                            <polygon id="Fill-5" points="91 31 96 31 96 25 91 25"></polygon>
                            <polygon id="Fill-6" points="101 31 106 31 106 25 101 25"></polygon>
                            <polygon id="Fill-7" points="112 31 117 31 117 25 112 25"></polygon>
                        </g>
                    </g>
                    <g id="Page-1" transform="translate(44.000000, 58.500000) scale(-1, 1) rotate(90.000000) translate(-44.000000, -58.500000) translate(-14.500000, 30.500000)" fill="#4A4A4A">
                        <path d="M12.5424797,24.6725352 L75,24.6725352 L75,31.2288732 L12.4027077,31.2288732 C19.2227582,38.064554 25.9153694,44.7728873 32.5504275,51.4278169 C30.9348279,53.0381455 29.4178908,54.5416667 27.950285,56 C18.6595593,46.6789906 9.28250384,37.2758216 0,27.9630282 C9.22906161,18.7077465 18.610228,9.30868545 27.8927319,0 C29.3027845,1.40903756 30.8032778,2.92077465 32.2379961,4.35856808 C25.7221552,10.8902582 19.0213221,17.6068075 12.3245999,24.3192488 C12.3985968,24.4383803 12.4684828,24.5575117 12.5424797,24.6725352 Z" id="Fill-1"></path>
                        <polygon id="Fill-3" points="80 31 85 31 85 25 80 25"></polygon>
                        <polygon id="Fill-5" points="91 31 96 31 96 25 91 25"></polygon>
                        <polygon id="Fill-6" points="101 31 106 31 106 25 101 25"></polygon>
                        <polygon id="Fill-7" points="112 31 117 31 117 25 112 25"></polygon>
                    </g>
                </g>
                <g id="Group">
                    <g id="Group-17">
                        <polygon id="Fill-1" fill="#EBEBEB" points="0 48 439.8 48 439.8 0 0 0"></polygon>
                        <path d="M395.4,32.47818 C395.4,35.72718 394.353893,38.38578 393.075079,38.38578 L137.935541,38.38578 C136.657206,38.38578 135.61086,35.72718 135.61086,32.47818 L135.61086,15.49338 C135.61086,12.24438 136.657206,9.58578 137.935541,9.58578 L393.075079,9.58578 C394.353893,9.58578 395.4,12.24438 395.4,15.49338 L395.4,32.47818 Z" id="Fill-3" fill="#F0F3F4"></path>
                        <path d="M386.43648,24.88764 L382.69128,28.74504 C382.31748,29.13084 381.94128,29.51664 381.56748,29.51664 C381.19128,29.51664 380.81748,29.13084 380.44248,28.74504 L376.69128,24.88764 C376.00248,24.23964 375.56628,23.30244 375.56628,22.26264 C375.56628,20.30364 377.10948,18.71664 379.01388,18.71664 C380.02548,18.71664 380.93568,19.16544 381.56748,19.87944 C382.19808,19.16544 383.10708,18.71664 384.11988,18.71664 C386.02308,18.71664 387.56628,20.30364 387.56628,22.26264 C387.56628,23.30244 387.13008,24.23964 386.43648,24.88764 Z" id="Fill-5" fill="#CCCCCC"></path>
                        <polygon id="Fill-7" fill="#A9B9BE" points="120.50856 25.62534 117.58356 22.69194 117.58356 18.29154 115.63356 18.29154 115.63356 20.73714 112.70796 17.80314 104.90856 25.62534 104.90856 26.11434 106.85796 26.11434 106.85796 31.00314 111.73356 31.00314 111.73356 28.06974 113.68296 28.06974 113.68296 31.00314 118.55916 31.00314 118.55916 26.11434 120.50856 26.11434"></polygon>
                        <path d="M90.56952,22.75368 L85.61892,22.75368 L87.46932,20.90388 C86.53392,19.96728 85.29132,19.45308 83.97012,19.45308 C82.64712,19.45308 81.40332,19.96728 80.46852,20.90388 C79.53312,21.83868 79.01832,23.08188 79.01832,24.40308 C79.01832,25.72548 79.53312,26.96808 80.46852,27.90348 C81.40332,28.83828 82.64712,29.35308 83.97012,29.35308 C85.29132,29.35308 86.53392,28.83828 87.46932,27.90348 C87.54732,27.82548 87.62292,27.74568 87.69492,27.66348 L88.93692,28.74948 C87.72672,30.13008 85.95012,31.00368 83.97012,31.00368 C80.32392,31.00368 77.36952,28.04808 77.36952,24.40308 C77.36952,20.75868 80.32392,17.80368 83.97012,17.80368 C85.79232,17.80368 87.44232,18.54228 88.63572,19.73748 L90.56952,17.80368 L90.56952,22.75368 Z" id="Fill-9" fill="#A9B9BE"></path>
                        <polygon id="Fill-11" fill="#A9B9BE" points="62.18052 24.40308 54.68052 16.90308 54.68052 21.59088 47.18052 21.59088 47.18052 27.21528 54.68052 27.21528 54.68052 31.90308"></polygon>
                        <polygon id="Fill-13" fill="#A9B9BE" points="14.67564 24.40308 22.17564 31.90308 22.17564 27.21528 29.67564 27.21528 29.67564 21.59088 22.17564 21.59088 22.17564 16.90308"></polygon>
                        <path d="M154.05762,27.51264 L153.64722,27.10284 C153.62982,27.12384 153.61242,27.14364 153.59502,27.16344 L153.58902,27.17064 L153.57822,27.18384 C153.49182,27.28104 153.41262,27.36504 153.33402,27.44304 C153.25782,27.51864 153.17682,27.59604 153.07602,27.68484 L153.07422,27.68724 L153.06462,27.69564 C153.04122,27.71484 153.01782,27.73584 152.99442,27.75564 L153.40482,28.16604 L153.73122,27.83904 L154.05762,27.51264 Z M156.75042,29.55084 L156.58962,29.39064 L156.59022,29.39004 L154.81422,27.61344 C154.80402,27.60384 154.79322,27.60264 154.78602,27.60264 C154.77882,27.60264 154.76802,27.60384 154.75782,27.61404 L154.69842,27.67344 L153.86022,28.51284 L153.50562,28.86684 C153.49782,28.87524 153.49422,28.88424 153.49422,28.89564 C153.49422,28.90464 153.49782,28.91424 153.50562,28.92204 L155.44242,30.85884 C155.44902,30.86604 155.45862,30.86964 155.47062,30.86964 C155.47662,30.86964 155.48742,30.86784 155.49582,30.85944 L156.12282,30.23244 L156.75042,29.60484 C156.75822,29.59824 156.76122,29.58864 156.76122,29.57784 C156.76122,29.56764 156.75822,29.55804 156.75042,29.55084 Z M152.07882,26.18724 C151.27062,26.99664 150.19482,27.44124 149.05062,27.44124 C147.90762,27.44124 146.83242,26.99664 146.02422,26.18724 C145.21542,25.37844 144.76962,24.30384 144.76962,23.16144 C144.76962,22.01664 145.21542,20.94084 146.02302,20.13204 C146.83242,19.32324 147.90762,18.87744 149.05122,18.87744 C150.19482,18.87744 151.27062,19.32324 152.08002,20.13204 C152.88822,20.94084 153.33282,22.01664 153.33282,23.15964 C153.33282,24.30264 152.88822,25.37724 152.07882,26.18724 Z M153.18102,26.77524 L153.19482,26.75784 C153.26562,26.67624 153.33402,26.59344 153.40002,26.50884 L153.41562,26.49024 L153.44022,26.45664 C154.16082,25.50084 154.54122,24.36084 154.54122,23.15964 C154.54122,21.69384 153.97062,20.31384 152.93322,19.27764 C151.89642,18.24144 150.51762,17.66964 149.05122,17.66964 C147.58422,17.66964 146.20602,18.24144 145.16982,19.27764 C144.13242,20.31384 143.56122,21.69384 143.56122,23.15964 C143.56122,24.62544 144.13242,26.00424 145.16982,27.04104 C146.20602,28.07844 147.58422,28.65024 149.05122,28.65024 C150.26142,28.65024 151.45362,28.24224 152.40762,27.50304 C152.48742,27.44064 152.56962,27.37464 152.65002,27.30324 L152.66382,27.29244 L152.68002,27.27804 C152.77662,27.19284 152.85762,27.11724 152.93322,27.04104 C153.01062,26.96424 153.08622,26.88264 153.16602,26.79264 L153.18102,26.77524 Z" id="Fill-15" fill="#C8C7C2"></path>
                    </g>
                    <text id="https://randomwebsite.com" font-family="OpenSans-Regular, Open Sans" font-size="13.07094" font-weight="normal" letter-spacing="-0.0522837594" fill="#4A4A4A">
                        <tspan x="165.10872" y="28.0955446">https://randomwebsite.com</tspan>
                    </text>
                    <path d="M427.789773,31.8296949 C426.79529,29.5525424 426.624156,27.6231864 426.597333,26.8650847 L426.597333,20.6275254 C426.597333,15.8625085 422.698801,12 417.890013,12 C413.080688,12 409.182022,15.8625085 409.182022,20.6275254 L409.182022,26.9552542 C409.144738,27.7707119 408.949328,29.6412203 407.993472,31.8296949 C406.708222,34.7704407 407.771641,34.4200678 408.724413,34.1780339 C409.676916,33.9370847 411.804156,32.992678 412.468843,34.1562034 C413.132994,35.3190508 413.687168,36.3292203 415.23797,35.6705085 C416.788907,35.0124746 417.519714,34.7929492 417.741142,34.7929492 L418.042236,34.7929492 C418.26353,34.7929492 418.994606,35.0124746 420.545274,35.6705085 C422.09621,36.3292203 422.65025,35.3190508 423.314803,34.1562034 C423.979088,32.992678 426.106194,33.9370847 427.058966,34.1780339 C428.011603,34.4200678 429.07462,34.7704407 427.789773,31.8296949 M415.202295,16.7044068 C416.14018,16.7044068 416.900627,17.8964068 416.900627,19.3671864 C416.900627,20.8381017 416.14018,22.0303729 415.202295,22.0303729 C414.26441,22.0303729 413.503829,20.8381017 413.503829,19.3671864 C413.503829,17.8964068 414.26441,16.7044068 415.202295,16.7044068 M417.890013,27.3482034 C415.82326,27.3482034 414.083486,25.3328814 413.55922,23.0903051 C414.571674,24.4696949 416.134681,25.3559322 417.890013,25.3559322 C419.645076,25.3559322 421.208083,24.4696949 422.220672,23.0903051 C421.696406,25.3328814 419.956363,27.3482034 417.890013,27.3482034 M420.577865,22.0303729 C419.639175,22.0303729 418.87913,20.8381017 418.87913,19.3671864 C418.87913,17.8964068 419.639175,16.7044068 420.577865,16.7044068 C421.516152,16.7044068 422.275928,17.8964068 422.275928,19.3671864 C422.275928,20.8381017 421.516152,22.0303729 420.577865,22.0303729" id="Fill-3" fill="#00AEF0"></path>
                    <rect id="Rectangle-29" fill="#54046E" x="419.4" y="8.4" width="13.8" height="13.8"></rect>
                    <text id="8" font-family="OpenSans-Regular, Open Sans" font-size="8.4" font-weight="normal" letter-spacing="-0.033600001" fill="#FFFFFF">
                        <tspan x="423.6" y="18.6">8</tspan>
                    </text>
                </g>
            </g>
        </g>
    </g>
</svg>